<?xml version="1.0" encoding="UTF-8" standalone="no"?>
<!-- Created with Inkscape (http://www.inkscape.org/) -->

<svg
   width="125.55386mm"
   height="72.444557mm"
   viewBox="0 0 125.55386 72.444557"
   version="1.1"
   id="svg20150"
   inkscape:version="1.1.2 (0a00cf5339, 2022-02-04)"
   sodipodi:docname="panel_blank.svg"
   xmlns:inkscape="http://www.inkscape.org/namespaces/inkscape"
   xmlns:sodipodi="http://sodipodi.sourceforge.net/DTD/sodipodi-0.dtd"
   xmlns="http://www.w3.org/2000/svg"
   xmlns:svg="http://www.w3.org/2000/svg">
  <sodipodi:namedview
     id="namedview20152"
     pagecolor="#ffffff"
     bordercolor="#666666"
     borderopacity="1.0"
     inkscape:pageshadow="2"
     inkscape:pageopacity="0.0"
     inkscape:pagecheckerboard="0"
     inkscape:document-units="mm"
     showgrid="false"
     fit-margin-top="0"
     fit-margin-left="0"
     fit-margin-right="0"
     fit-margin-bottom="0"
     inkscape:zoom="2.9473401"
     inkscape:cx="237.33264"
     inkscape:cy="136.9031"
     inkscape:window-width="1850"
     inkscape:window-height="1016"
     inkscape:window-x="0"
     inkscape:window-y="0"
     inkscape:window-maximized="1"
     inkscape:current-layer="layer1" />
  <defs
     id="defs20147" />
  <g
     inkscape:label="Layer 1"
     inkscape:groupmode="layer"
     id="layer1"
     transform="translate(-67.492889,-91.76877)">
    <path
       style="fill:none;fill-opacity:1;fill-rule:nonzero;stroke:#ff0000;stroke-width:0.1;stroke-miterlimit:4;stroke-dasharray:none;stroke-opacity:1"
       d="m 186.32291,144.46969 v -24.11488 l 4.67145,-2.81232 V 99.455077 l -12.6787,-7.636307 h -42.70555 l -6.678,4.018311 h -21.3507 l -5.33604,-3.21389 H 76.21692 l -7.338431,4.419878 v 5.628401 l 4.669373,2.81358 v 10.44734 l -4.002641,2.41201 v 13.26468 l 2.00239,1.20603 v 12.8606 l -4.004722,2.41198 v 10.8517 l 5.340322,3.21479 h 50.048149 24.68655 l 3.33793,2.00915 h 33.36474 l 8.67617,-5.22394 v -10.4514 l -6.67384,-4.0183"
       id="path17952" />
    <path
       style="fill:none;fill-opacity:1;fill-rule:nonzero;stroke:#0000ff;stroke-width:0.162719;stroke-opacity:1"
       d="m 161.53788,162.35142 -0.34175,0.20583 h -0.46774 l -0.34175,-0.20583 v -3.29218 l 0.34175,-0.2062 h 0.46774 l 0.34175,0.2062 z"
       id="path17936" />
    <path
       style="fill:none;fill-opacity:1;fill-rule:nonzero;stroke:#0000ff;stroke-width:0.162719;stroke-opacity:1"
       d="m 164.14614,162.35142 -0.34176,0.20583 h -0.46536 l -0.34174,-0.20583 v -3.29218 l 0.34174,-0.2062 h 0.46536 l 0.34176,0.2062 z"
       id="path17934" />
    <path
       style="fill:none;fill-opacity:1;fill-rule:nonzero;stroke:#0000ff;stroke-width:0.162719;stroke-opacity:1"
       d="m 166.75445,162.35142 -0.34173,0.20583 h -0.46359 l -0.34175,-0.20583 v -3.29218 l 0.34175,-0.2062 h 0.46359 l 0.34173,0.2062 z"
       id="path17932" />
    <path
       style="fill:none;fill-opacity:1;fill-rule:nonzero;stroke:#0000ff;stroke-width:0.162719;stroke-opacity:1"
       d="m 169.36485,162.35142 -0.34412,0.20583 h -0.46359 l -0.34173,-0.20583 v -3.29218 l 0.34173,-0.2062 h 0.46359 l 0.34412,0.2062 z"
       id="path17930" />
    <path
       style="fill:none;fill-opacity:1;fill-rule:nonzero;stroke:#0000ff;stroke-width:0.162719;stroke-opacity:1"
       d="m 171.9731,162.35142 -0.34173,0.20583 h -0.46536 l -0.34176,-0.20583 v -3.29218 l 0.34176,-0.2062 h 0.46536 l 0.34173,0.2062 z"
       id="path17928" />
    <path
       style="fill:none;fill-opacity:1;fill-rule:nonzero;stroke:#0000ff;stroke-width:0.162719;stroke-opacity:1"
       d="m 174.58144,162.35142 -0.34176,0.20583 h -0.46536 l -0.34174,-0.20583 v -3.29218 l 0.34174,-0.2062 h 0.46536 l 0.34176,0.2062 z"
       id="path17926" />
    <path
       style="fill:none;fill-opacity:1;fill-rule:nonzero;stroke:#0000ff;stroke-width:0.1;stroke-miterlimit:4;stroke-dasharray:none;stroke-opacity:1"
       d="m 182.98705,153.7123 -6.00491,3.61789 h -27.3619 l -4.00472,2.41222 h -69.3986 l -4.00258,-2.41222 V 152.106 l 5.33818,-3.21389 v -11.25302 l -3.33585,-2.01041 v -13.66631 l 3.33585,-2.00787 V 99.859187 l 6.67378,-4.022106 h 16.01668 l 10.00963,6.028719 h 24.0219 l 3.33585,-2.006613 v -4.022106 l 3.33585,-2.007902 h 32.70009 l 4.00471,2.410722 V 110.7081 l 5.33604,3.21639 z"
       id="path17924" />
    <g
       id="g17861"
       transform="translate(60.234823,39.665618)">
      <circle
         style="fill:none;fill-opacity:1;stroke:#ff0000;stroke-width:0.1;stroke-miterlimit:4;stroke-dasharray:none;stroke-opacity:1"
         id="path17553-3"
         cx="13.246953"
         cy="61.002777"
         r="1.5" />
      <circle
         style="fill:none;fill-opacity:1;stroke:#ff0000;stroke-width:0.1;stroke-miterlimit:4;stroke-dasharray:none;stroke-opacity:1"
         id="path17553"
         cx="14.434066"
         cy="103.51378"
         r="1.5" />
      <circle
         style="fill:none;fill-opacity:1;stroke:#ff0000;stroke-width:0.1;stroke-miterlimit:4;stroke-dasharray:none;stroke-opacity:1"
         id="path17553-3-6"
         cx="124.89333"
         cy="65.081032"
         r="1.5" />
      <circle
         style="fill:none;fill-opacity:1;stroke:#ff0000;stroke-width:0.1;stroke-miterlimit:4;stroke-dasharray:none;stroke-opacity:1"
         id="path17553-7"
         cx="127.58498"
         cy="111.46254"
         r="1.5" />
    </g>
    <path
       d="m 173.20588,110.74691 h -4.31078 l -2.12786,-2.05715 h -4.29482 v -0.12857 h 4.34988 l 2.12786,2.05714 h 4.20066 l 2.08876,-2.01957 V 96.322209 l -2.07706,-1.003858 h -9.53201 l -1.06393,1.028569 h -10.69435 l -1.06393,-1.028569 h -9.53228 l -2.07706,1.003858 v 12.276551 l 2.08903,2.01957 h 4.20066 l 2.12786,-2.05714 h 4.34961 v 0.12857 h -4.29455 l -2.12787,2.05715 h -4.31077 l -2.16696,-2.09471 V 96.243061 l 2.19435,-1.053282 h 9.60303 l 1.06393,1.028571 h 10.58424 l 1.06393,-1.028571 9.63229,0.0067 2.16483,1.046545 v 12.409136 l -2.16669,2.09471"
       style="fill:none;fill-opacity:1;fill-rule:nonzero;stroke:#0000ff;stroke-width:0.1;stroke-opacity:1;stroke-miterlimit:4;stroke-dasharray:none"
       id="path5418" />
    <path
       d="m 167.56518,108.62547 h 1.06394 l 1.06393,1.02858 h -1.06393 l -1.06394,-1.02858"
       style="fill:none;fill-opacity:1;fill-rule:nonzero;stroke:#0000ff;stroke-width:0.1;stroke-opacity:1;stroke-miterlimit:4;stroke-dasharray:none"
       id="path5420" />
    <path
       d="m 168.8951,108.62547 h 1.06393 l 1.06393,1.02858 h -1.06393 l -1.06393,-1.02858"
       style="fill:none;fill-opacity:1;fill-rule:nonzero;stroke:#0000ff;stroke-width:0.1;stroke-opacity:1;stroke-miterlimit:4;stroke-dasharray:none"
       id="path5422" />
    <path
       d="m 170.22501,108.62547 h 1.06393 l 1.06393,1.02858 h -1.06393 l -1.06393,-1.02858"
       style="fill:none;fill-opacity:1;fill-rule:nonzero;stroke:#0000ff;stroke-width:0.1;stroke-opacity:1;stroke-miterlimit:4;stroke-dasharray:none"
       id="path5424" />
    <path
       d="m 171.55492,108.62547 h 1.06393 l 1.06393,1.02858 h -1.06393 l -1.06393,-1.02858"
       style="fill:none;fill-opacity:1;fill-rule:nonzero;stroke:#0000ff;stroke-width:0.1;stroke-opacity:1;stroke-miterlimit:4;stroke-dasharray:none"
       id="path5426" />
    <path
       d="m 168.8951,110.03976 h 4.25572 v 0.25714 h -4.25572 v -0.25714"
       style="fill:none;fill-opacity:1;fill-rule:nonzero;stroke:#0000ff;stroke-width:0.1;stroke-opacity:1;stroke-miterlimit:4;stroke-dasharray:none"
       id="path5428" />
    <path
       d="m 145.80916,109.65405 h -1.06393 l 1.06393,-1.02858 h 1.06393 l -1.06393,1.02858"
       style="fill:none;fill-opacity:1;fill-rule:nonzero;stroke:#0000ff;stroke-width:0.1;stroke-opacity:1;stroke-miterlimit:4;stroke-dasharray:none"
       id="path5430" />
    <path
       d="m 144.47925,109.65405 h -1.06393 l 1.06393,-1.02858 h 1.06392 l -1.06392,1.02858"
       style="fill:none;fill-opacity:1;fill-rule:nonzero;stroke:#0000ff;stroke-width:0.1;stroke-opacity:1;stroke-miterlimit:4;stroke-dasharray:none"
       id="path5432" />
    <path
       d="m 143.14933,109.65405 h -1.06393 l 1.06393,-1.02858 h 1.06393 l -1.06393,1.02858"
       style="fill:none;fill-opacity:1;fill-rule:nonzero;stroke:#0000ff;stroke-width:0.1;stroke-opacity:1;stroke-miterlimit:4;stroke-dasharray:none"
       id="path5434" />
    <path
       d="m 141.81942,109.65405 h -1.06393 l 1.06393,-1.02858 h 1.06393 l -1.06393,1.02858"
       style="fill:none;fill-opacity:1;fill-rule:nonzero;stroke:#0000ff;stroke-width:0.1;stroke-opacity:1;stroke-miterlimit:4;stroke-dasharray:none"
       id="path5436" />
    <path
       d="m 145.54317,110.2969 h -4.25571 v -0.25714 h 4.25571 v 0.25714"
       style="fill:none;fill-opacity:1;fill-rule:nonzero;stroke:#0000ff;stroke-width:0.1;stroke-opacity:1;stroke-miterlimit:4;stroke-dasharray:none"
       id="path5438" />
    <path
       d="m 153.47052,107.08874 0.17288,-0.31137 c 0.70779,-1.2777 2.07785,-2.0713 3.57587,-2.0713 1.49801,0 2.86835,0.7936 3.57614,2.0713 l 0.17262,0.31199 -0.64501,0.33367 -0.17262,-0.31159 c -0.58011,-1.04734 -1.70336,-1.69793 -2.93113,-1.69793 -1.22777,0 -2.35075,0.65029 -2.93086,1.69763 l -0.17289,0.31168 -0.645,-0.33408"
       style="fill:none;fill-opacity:1;fill-rule:nonzero;stroke:#0000ff;stroke-width:0.1;stroke-opacity:1;stroke-miterlimit:4;stroke-dasharray:none"
       id="path5440" />
    <path
       d="m 153.47025,110.16139 0.645,-0.33377 0.1729,0.31168 c 0.57983,1.04755 1.70335,1.69815 2.93112,1.69815 1.22804,0 2.35102,-0.6506 2.93113,-1.69815 l 0.17262,-0.31168 0.64527,0.33377 -0.17288,0.31189 c -0.70752,1.27779 -2.07786,2.07151 -3.57614,2.07151 -1.49828,0 -2.86862,-0.79372 -3.5764,-2.07151 l -0.17262,-0.31189"
       style="fill:none;fill-opacity:1;fill-rule:nonzero;stroke:#0000ff;stroke-width:0.1;stroke-opacity:1;stroke-miterlimit:4;stroke-dasharray:none"
       id="path5442" />
    <path
       d="m 160.8619,108.62547 c 0,-1.94173 -1.63393,-3.52154 -3.64263,-3.52154 -2.0087,0 -3.64263,1.57981 -3.64263,3.52154 0,1.94195 1.63393,3.52155 3.64263,3.52155 2.0087,0 3.64263,-1.5796 3.64263,-3.52155 z m -7.37676,0 c 0,-1.99053 1.67516,-3.61004 3.73413,-3.61004 2.05897,0 3.73413,1.61951 3.73413,3.61004 0,1.99055 -1.67516,3.61006 -3.73413,3.61006 -2.05897,0 -3.73413,-1.61951 -3.73413,-3.61006"
       style="fill:none;fill-opacity:1;fill-rule:nonzero;stroke:#0000ff;stroke-width:0.1;stroke-opacity:1;stroke-miterlimit:4;stroke-dasharray:none"
       id="path5444" />
    <path
       d="m 160.90765,108.78819 c -0.0928,0 -0.16837,-0.0727 -0.16837,-0.16272 0,-0.09 0.0755,-0.16282 0.16837,-0.16282 0.0931,0 0.16837,0.0728 0.16837,0.16282 0,0.09 -0.0752,0.16272 -0.16837,0.16272"
       style="fill:none;fill-opacity:1;fill-rule:nonzero;stroke:#0000ff;stroke-width:0.1;stroke-opacity:1;stroke-miterlimit:4;stroke-dasharray:none"
       id="path5446" />
    <path
       d="m 153.53089,108.78819 c -0.0931,0 -0.16837,-0.0727 -0.16837,-0.16272 0,-0.09 0.0752,-0.16282 0.16837,-0.16282 0.0928,0 0.16837,0.0728 0.16837,0.16282 0,0.09 -0.0755,0.16272 -0.16837,0.16272"
       style="fill:none;fill-opacity:1;fill-rule:nonzero;stroke:#0000ff;stroke-width:0.1;stroke-opacity:1;stroke-miterlimit:4;stroke-dasharray:none"
       id="path5448" />
    <text
       xml:space="preserve"
       style="font-style:normal;font-weight:normal;font-size:6.90433px;line-height:1.25;font-family:sans-serif;fill:none;fill-opacity:1;stroke:#0000ff;stroke-width:0.1;stroke-opacity:1;stroke-miterlimit:4;stroke-dasharray:none"
       x="140.186"
       y="103.62241"
       id="text26656"><tspan
         sodipodi:role="line"
         id="tspan26654"
         style="stroke-width:0.1;fill:none;stroke:#0000ff;stroke-opacity:1;stroke-miterlimit:4;stroke-dasharray:none"
         x="140.186"
         y="103.62241">CONTROL</tspan></text>
  </g>
</svg>
